<svg viewBox="0 0 107 32" fill="none" xmlns="http://www.w3.org/2000/svg">
<g clip-path="url(#clip0_84_17)">
<path d="M11.4054 24.293C11.4054 22.1935 13.1077 20.4912 15.2072 20.4912V16.6894H0V20.4912C2.09949 20.4912 3.8018 22.1935 3.8018 24.293C3.8018 26.3924 2.09949 28.0948 0 28.0948V31.8966H15.2072V28.0948C13.1077 28.0948 11.4054 26.3924 11.4054 24.293Z" fill="#05BFE0"/>
<path d="M24.0983 7.79646C24.0983 3.59748 20.6937 0.19462 16.4947 0.19462V15.4018C20.6937 15.4018 24.0975 11.9981 24.0983 7.79999C24.0983 11.999 27.503 15.4018 31.7019 15.4018V0.19462C27.503 0.19462 24.0992 3.59748 24.0983 7.79646Z" fill="#FF610F"/>
<path d="M9.9805 7.79823H2.85157V3.0462H9.9805C11.2927 3.0462 12.3565 4.11004 12.3565 5.42222C12.3565 6.7344 11.2927 7.79823 9.9805 7.79823ZM10.4552 0.216646C10.2984 0.202555 10.1399 0.193748 9.97962 0.193748H0V15.401H2.85157V10.648H9.9805C10.1408 10.648 10.2993 10.6401 10.4561 10.626C13.12 10.3856 15.2081 8.14785 15.2081 5.42046C15.2081 2.69306 13.1192 0.457065 10.4552 0.216646Z" fill="black"/>
<path d="M16.4947 31.8974V27.5937L20.7985 31.8974H16.4947Z" fill="#4F17A8"/>
<path d="M25.1692 31.8974L16.4947 23.223V18.8522L29.5399 31.8974H25.1692Z" fill="#4F17A8"/>
<path d="M31.7019 16.6876V20.9438L27.4457 16.6876H31.7019Z" fill="#4F17A8"/>
<path d="M31.7028 29.6879L18.7052 16.6902H23.0759L31.7037 25.3172L31.7028 29.6879Z" fill="#4F17A8"/>
<path d="M33.7275 30.4496H34.0436L34.5579 31.6183L35.0652 30.4496H35.3857V31.8974H35.1576V30.7667L34.6645 31.8974H34.4505L33.96 30.7667V31.8974H33.7319L33.7283 30.4496H33.7275ZM32.9243 30.6531H32.4954V30.4488H33.5777V30.6531H33.1524V31.8966H32.9243V30.6531Z" fill="black"/>
<path d="M81.2751 31.1691C81.2751 31.5769 80.9545 31.8975 80.538 31.8975C80.1214 31.8975 79.7965 31.5769 79.7965 31.1691C79.7965 30.7614 80.1258 30.4496 80.538 30.4496C80.9501 30.4496 81.2751 30.7702 81.2751 31.1691ZM79.9805 31.1691C79.9805 31.4897 80.2174 31.7442 80.5424 31.7442C80.8673 31.7442 81.091 31.4897 81.091 31.1735C81.091 30.8574 80.8585 30.595 80.538 30.595C80.2174 30.595 79.9805 30.853 79.9805 31.1691ZM80.4235 31.5461H80.257V30.8266C80.3231 30.8134 80.4147 30.8046 80.5336 30.8046C80.6692 30.8046 80.7308 30.8266 80.7837 30.8574C80.8233 30.8882 80.8541 30.9455 80.8541 31.015C80.8541 31.0943 80.7925 31.1551 80.7053 31.1815V31.1903C80.7757 31.2167 80.8154 31.2695 80.8365 31.3655C80.8585 31.4756 80.8717 31.5188 80.8894 31.5452H80.7097C80.6877 31.5188 80.6745 31.4527 80.6525 31.3699C80.6392 31.2907 80.5952 31.2554 80.5036 31.2554H80.4244V31.5452L80.4235 31.5461ZM80.4279 31.1383H80.5071C80.5996 31.1383 80.6736 31.1075 80.6736 31.0326C80.6736 30.9666 80.6252 30.9226 80.5204 30.9226C80.4763 30.9226 80.4455 30.927 80.4279 30.9314V31.1383Z" fill="black"/>
<path d="M43.8594 4.89558C44.2681 4.69127 44.5886 4.39713 44.8114 4.02285C45.0342 3.64681 45.1478 3.20295 45.1478 2.70186C45.1478 2.20076 45.0342 1.75691 44.8114 1.38087C44.5886 1.00571 44.2689 0.712452 43.8594 0.508139C43.4473 0.302065 42.9638 0.197267 42.4222 0.197267H39.302V8.15842H40.4627V5.20557H42.4222C42.9638 5.20557 43.4473 5.10077 43.8594 4.89558ZM40.4627 4.22011V1.1836H42.3174C42.8185 1.1836 43.2218 1.32011 43.516 1.59047C43.8128 1.86259 43.9633 2.23599 43.9633 2.70186C43.9633 3.16773 43.811 3.53144 43.5107 3.80709C43.2121 4.08097 42.807 4.22011 42.3059 4.22011H40.4627Z" fill="black"/>
<path d="M48.6881 3.38085H49.1583V2.38306H48.9672C48.5278 2.38306 48.1755 2.4588 47.9193 2.60939C47.6621 2.75998 47.449 2.97046 47.2869 3.23642L47.1619 3.44161L46.9972 2.38394H46.0443V8.1593H47.124V5.26017C47.124 4.72473 47.2464 4.2756 47.4886 3.92598C47.7378 3.56491 48.1412 3.38261 48.689 3.38261L48.6881 3.38085Z" fill="black"/>
<path d="M49.8285 6.82686C50.0707 7.27072 50.4194 7.61858 50.8633 7.86164C51.3089 8.10558 51.8285 8.22887 52.408 8.22887C52.9874 8.22887 53.5062 8.10558 53.9527 7.86164C54.3965 7.61946 54.7444 7.27072 54.9874 6.82686C55.2314 6.38125 55.3547 5.85726 55.3547 5.27074C55.3547 4.68422 55.2314 4.17168 54.9874 3.72607C54.7452 3.28221 54.3965 2.93171 53.9527 2.68513C53.507 2.43766 52.9874 2.31261 52.4089 2.31261C51.8303 2.31261 51.3107 2.43766 50.8651 2.68513C50.4212 2.93171 50.0725 3.28133 49.8303 3.72607C49.5863 4.17168 49.4631 4.69127 49.4631 5.27074C49.4631 5.85021 49.5863 6.38125 49.8303 6.82686H49.8285ZM51.0738 3.78947C51.4075 3.40286 51.8567 3.20648 52.408 3.20648C52.9593 3.20648 53.4093 3.40198 53.7475 3.78859C54.0821 4.17168 54.2521 4.67013 54.2521 5.27074C54.2521 5.87135 54.0821 6.3698 53.7475 6.75289C53.4102 7.1395 52.9593 7.33501 52.408 7.33501C51.8567 7.33501 51.4075 7.13862 51.0738 6.75201C50.7435 6.36892 50.5753 5.87047 50.5753 5.27074C50.5753 4.67101 50.7427 4.17168 51.0738 3.78947Z" fill="black"/>
<path d="M57.4577 8.90962V2.38306H56.378V8.81627C56.378 9.06374 56.319 9.25044 56.2019 9.37109C56.0847 9.4935 55.9024 9.55514 55.662 9.55514H55.0755V10.4834H55.9174C56.9531 10.4834 57.4568 9.96817 57.4568 8.90874L57.4577 8.90962Z" fill="black"/>
<path d="M56.9178 1.33508C57.1125 1.33508 57.2692 1.27343 57.396 1.14574C57.5237 1.01804 57.5854 0.862165 57.5854 0.667539C57.5854 0.472914 57.5237 0.316156 57.396 0.189342C57.2683 0.0616461 57.1125 0 56.9178 0C56.7232 0 56.5647 0.0625267 56.4326 0.190222C56.3022 0.317037 56.238 0.473794 56.238 0.667539C56.238 0.861284 56.2996 1.01804 56.4273 1.14574C56.555 1.27343 56.7162 1.33508 56.9178 1.33508Z" fill="black"/>
<path d="M59.8953 7.86164C60.3409 8.10558 60.8729 8.22887 61.4744 8.22887C62.163 8.22887 62.7451 8.03953 63.2031 7.66701C63.6328 7.31739 63.9103 6.87002 64.0291 6.33546H62.9477C62.8517 6.6569 62.6703 6.91141 62.4079 7.09282C62.1304 7.28481 61.7852 7.38168 61.381 7.38168C60.8702 7.38168 60.4546 7.22052 60.1437 6.90172C59.8354 6.58556 59.6628 6.1514 59.6303 5.61332V5.45039H64.1278C64.1436 5.3183 64.1516 5.18796 64.1516 5.06202C64.1445 4.50809 64.0168 4.01844 63.7746 3.60718C63.5325 3.19679 63.196 2.87535 62.7742 2.65166C62.3515 2.42709 61.8548 2.31349 61.2982 2.31349C60.7416 2.31349 60.259 2.43678 59.8363 2.67984C59.4154 2.92202 59.0825 3.26988 58.8473 3.71374C58.6113 4.15935 58.4916 4.68774 58.4916 5.28219C58.4916 5.87663 58.6149 6.39006 58.8588 6.83215C59.101 7.27248 59.4497 7.61858 59.8936 7.86076L59.8953 7.86164ZM59.6787 4.61025C59.728 4.1708 59.9121 3.81325 60.2265 3.54729C60.54 3.28309 60.9169 3.14835 61.3467 3.14835C61.8081 3.14835 62.1965 3.27869 62.5021 3.53496C62.8085 3.79299 62.9935 4.15407 63.0499 4.60848L63.0622 4.70712H59.6672L59.6778 4.60936L59.6787 4.61025Z" fill="black"/>
<path d="M66.3065 7.86164C66.7407 8.1047 67.2506 8.22799 67.8213 8.22799C68.5487 8.22799 69.1519 8.03689 69.6143 7.66085C70.0511 7.30506 70.3355 6.81189 70.4588 6.19543H69.3554C69.2673 6.53096 69.0947 6.80397 68.8411 7.0074C68.5707 7.22492 68.2272 7.335 67.8213 7.335C67.2929 7.335 66.8613 7.13862 66.539 6.75113C66.2211 6.36804 66.0591 5.86695 66.0591 5.25929C66.0591 4.65164 66.2202 4.16287 66.539 3.78419C66.8613 3.4011 67.2929 3.20648 67.8213 3.20648C68.2114 3.20648 68.5469 3.3148 68.8173 3.52792C69.0709 3.72783 69.247 3.99467 69.3413 4.32315H70.458C70.3347 3.72166 70.0546 3.23642 69.6248 2.88063C69.1704 2.50459 68.5751 2.31349 67.8556 2.31349C67.277 2.31349 66.7609 2.43678 66.3233 2.67984C65.8873 2.92202 65.5448 3.26812 65.3061 3.70845C65.0666 4.15054 64.945 4.67189 64.945 5.25929C64.945 5.84669 65.0648 6.37244 65.3008 6.82246C65.536 7.26983 65.8741 7.61946 66.3065 7.86164Z" fill="black"/>
<path d="M71.8732 6.63136C71.8732 7.15535 71.9956 7.5446 72.2369 7.7903C72.4782 8.03513 72.8736 8.1593 73.4126 8.1593H74.5336V7.23109H73.6688C73.417 7.23109 73.24 7.17472 73.129 7.05848C73.0189 6.94311 72.9652 6.76169 72.9652 6.50366V3.31216H74.3954V2.38394H72.9652V0.720378H71.8741V2.38306H70.8393V3.31127H71.8741L71.8732 6.63136Z" fill="black"/>
<path d="M44.0144 20.0253L46.6027 13.6775V20.0253H47.7167V12.0641H46.1676L43.5512 18.6171L40.8872 12.0641H39.302V20.0253H40.416V13.6775L43.0052 20.0253H44.0144Z" fill="black"/>
<path d="M51.1874 16.6207C50.3816 16.6207 49.7625 16.7809 49.3459 17.0971C48.9311 17.4115 48.7295 17.8509 48.7295 18.4392C48.7295 18.9579 48.9162 19.3533 49.2993 19.6484C49.685 19.9452 50.2063 20.0949 50.8501 20.0949C51.6867 20.0949 52.3049 19.7734 52.7409 19.1112L52.902 18.8655V19.1587C52.902 19.4423 52.9786 19.6589 53.1301 19.8042C53.2825 19.9504 53.544 20.0244 53.906 20.0244H54.4802V19.1076H54.3243C54.0125 19.1076 53.8408 18.928 53.8408 18.6013V16.2534C53.8408 15.5859 53.6321 15.0689 53.2208 14.7158C52.8052 14.36 52.2028 14.1795 51.4296 14.1795C50.7004 14.1795 50.1033 14.3406 49.655 14.6577C49.2394 14.9518 48.9901 15.3657 48.9135 15.8871H49.9747C50.0372 15.6334 50.187 15.4256 50.4212 15.2689C50.6713 15.1007 50.991 15.0152 51.3714 15.0152C51.8012 15.0152 52.1447 15.1174 52.3921 15.3199C52.6449 15.526 52.7734 15.8131 52.7734 16.1724V16.6207H51.1856H51.1874ZM52.7743 17.6722C52.7664 18.1609 52.6061 18.5572 52.2997 18.8514C51.9932 19.1455 51.5643 19.2943 51.0236 19.2943C50.6643 19.2943 50.3737 19.2098 50.1614 19.0434C49.9421 18.8716 49.8312 18.6409 49.8312 18.3582C49.8312 18.035 49.9492 17.7867 50.1817 17.6185C50.4054 17.4573 50.7233 17.3754 51.1284 17.3754H52.7743V17.6722Z" fill="black"/>
<path d="M59.4938 20.0253H60.5849V16.8355C60.5849 15.9038 60.3691 15.2213 59.9429 14.8065C59.5166 14.3908 58.9566 14.1804 58.2784 14.1804C57.4894 14.1804 56.8703 14.4551 56.4405 14.9959L56.319 15.1482L56.1578 14.2499H55.227V20.0253H56.3067V17.1138C56.3067 16.4912 56.4564 15.9936 56.7505 15.6343C57.0499 15.2697 57.4656 15.0848 57.9869 15.0848C58.4775 15.0848 58.8562 15.2442 59.1133 15.5586C59.3661 15.8677 59.4938 16.3212 59.4938 16.9042V20.0253Z" fill="black"/>
<path d="M65.6663 19.1605C65.6663 19.4441 65.7429 19.6607 65.8944 19.806C66.0476 19.9522 66.3083 20.0262 66.6702 20.0262H67.2444V19.1094H67.0886C66.7768 19.1094 66.6051 18.9298 66.6051 18.603V16.2552C66.6051 15.5877 66.3964 15.0707 65.9851 14.7176C65.5694 14.3618 64.967 14.1812 64.1938 14.1812C63.4646 14.1812 62.8676 14.3424 62.4193 14.6594C62.0036 14.9536 61.7544 15.3675 61.6778 15.8888H62.739C62.8015 15.6352 62.9512 15.4274 63.1855 15.2706C63.4356 15.1024 63.7553 15.017 64.1357 15.017C64.5655 15.017 64.9089 15.1191 65.1564 15.3217C65.4091 15.5278 65.5377 15.8149 65.5377 16.1742V16.6224H63.9499C63.1441 16.6224 62.525 16.7827 62.1084 17.0989C61.6936 17.4133 61.492 17.8527 61.492 18.441C61.492 18.9597 61.6787 19.3551 62.0618 19.6501C62.4475 19.9469 62.9688 20.0966 63.6126 20.0966C64.4492 20.0966 65.0674 19.7752 65.5034 19.1129L65.6645 18.8672V19.1605H65.6663ZM65.5386 17.6722C65.5307 18.1609 65.3704 18.5572 65.0639 18.8514C64.7575 19.1455 64.3286 19.2943 63.7878 19.2943C63.4285 19.2943 63.1379 19.2098 62.9257 19.0434C62.7064 18.8716 62.5954 18.6409 62.5954 18.3582C62.5954 18.035 62.7134 17.7867 62.9459 17.6185C63.1696 17.4573 63.4884 17.3754 63.8926 17.3754H65.5386V17.6722Z" fill="black"/>
<path d="M70.6693 21.5735C70.2122 21.5735 69.8327 21.4766 69.5403 21.2864C69.262 21.105 69.0762 20.8496 68.9855 20.5273H67.8723C67.9428 21.1103 68.2079 21.5708 68.6632 21.8958C69.1493 22.2437 69.7931 22.4198 70.5768 22.4198C71.5878 22.4198 72.3417 22.1952 72.819 21.7514C73.2937 21.3093 73.535 20.6761 73.535 19.8685V14.2491H72.6059L72.443 15.334L72.3161 15.1394C72.1233 14.8435 71.8688 14.6066 71.557 14.4366C71.2461 14.2667 70.8692 14.1804 70.4368 14.1804C69.9208 14.1804 69.4505 14.3037 69.0401 14.5458C68.6297 14.788 68.303 15.1341 68.0678 15.5753C67.8318 16.0174 67.7121 16.5352 67.7121 17.1147C67.7121 17.6942 67.8301 18.2446 68.0626 18.6832C68.2942 19.1191 68.6191 19.4599 69.0286 19.6942C69.439 19.9293 69.9137 20.0491 70.4377 20.0491C71.2743 20.0491 71.8855 19.7426 72.3056 19.1121L72.4667 18.8699V19.8236C72.4667 20.9852 71.8617 21.5744 70.6702 21.5744L70.6693 21.5735ZM71.9674 18.596C71.6336 18.9747 71.1889 19.1667 70.6455 19.1667C70.1022 19.1667 69.6574 18.9729 69.3237 18.5898C68.9934 18.2111 68.8252 17.7144 68.8252 17.1138C68.8252 16.5132 68.9925 16.0165 69.3237 15.6379C69.6574 15.2556 70.1022 15.061 70.6455 15.061C71.1889 15.061 71.6336 15.2574 71.9674 15.644C72.2976 16.0271 72.4659 16.5291 72.4659 17.1376C72.4659 17.7462 72.2976 18.2208 71.9674 18.596Z" fill="black"/>
<path d="M78.7476 14.5185C78.3249 14.294 77.8282 14.1804 77.2716 14.1804C76.715 14.1804 76.2324 14.3037 75.8097 14.5467C75.3888 14.7889 75.0559 15.1368 74.8207 15.5806C74.5847 16.0271 74.4649 16.5546 74.4649 17.1491C74.4649 17.7435 74.5882 18.2569 74.8322 18.699C75.0744 19.1394 75.4231 19.4854 75.867 19.7276C76.3126 19.9716 76.8445 20.0949 77.446 20.0949C78.1346 20.0949 78.7168 19.9055 79.1747 19.533C79.6045 19.1834 79.8819 18.736 80.0008 18.2014H78.9193C78.8233 18.5229 78.6419 18.7774 78.3795 18.9588C78.1021 19.1508 77.7568 19.2477 77.3526 19.2477C76.8418 19.2477 76.4253 19.0865 76.1153 18.7677C75.8071 18.4516 75.6345 18.0183 75.6019 17.4793V17.3164H80.0994C80.1152 17.1843 80.1232 17.054 80.1232 16.928C80.1161 16.3741 79.9884 15.8844 79.7463 15.4732C79.5041 15.0628 79.1677 14.7413 78.7458 14.5177L78.7476 14.5185ZM75.6389 16.5749L75.6494 16.4771C75.6987 16.0377 75.8828 15.6801 76.1972 15.4142C76.5107 15.15 76.8876 15.0152 77.3174 15.0152C77.7789 15.0152 78.1672 15.1456 78.4728 15.4018C78.7793 15.6599 78.9642 16.0209 79.0206 16.4754L79.0329 16.574H75.638L75.6389 16.5749Z" fill="black"/>
<path d="M87.8615 14.1795C87.3983 14.1795 86.9985 14.2719 86.6718 14.4534C86.3459 14.6348 86.0791 14.8919 85.8783 15.2187L85.7929 15.3578L85.7233 15.2099C85.5612 14.8646 85.3279 14.604 85.0276 14.4358C84.7246 14.2658 84.368 14.1795 83.9664 14.1795C83.2627 14.1865 82.7 14.4604 82.2922 14.9932L82.1707 15.1517L82.0087 14.2482H81.0778V20.0235H82.1575V16.9263C82.1575 16.3732 82.2914 15.9249 82.5547 15.5929C82.8224 15.2548 83.1879 15.083 83.6405 15.083C84.0932 15.083 84.4155 15.2292 84.6454 15.5172C84.8699 15.799 84.9844 16.2182 84.9844 16.7633V20.0235H86.0756V16.8919C86.0756 16.3389 86.2094 15.8959 86.4736 15.5744C86.7422 15.2486 87.1112 15.083 87.57 15.083C88.0288 15.083 88.3441 15.2319 88.5696 15.5242C88.7897 15.8105 88.9016 16.227 88.9016 16.7633V20.0235H89.9813V16.7519C89.9813 15.8501 89.7822 15.1878 89.3903 14.7845C88.9985 14.382 88.4841 14.1777 87.8606 14.1777L87.8615 14.1795Z" fill="black"/>
<path d="M95.1261 14.5185C94.7034 14.294 94.2067 14.1804 93.6501 14.1804C93.0935 14.1804 92.6109 14.3037 92.1882 14.5467C91.7673 14.7889 91.4343 15.1368 91.1992 15.5806C90.9632 16.0271 90.8434 16.5546 90.8434 17.1491C90.8434 17.7435 90.9667 18.2569 91.2107 18.699C91.4528 19.1394 91.8016 19.4854 92.2454 19.7276C92.6911 19.9716 93.223 20.0949 93.8245 20.0949C94.5131 20.0949 95.0953 19.9055 95.5532 19.533C95.983 19.1834 96.2604 18.736 96.3793 18.2014H95.2978C95.2018 18.5229 95.0204 18.7774 94.758 18.9588C94.4806 19.1508 94.1353 19.2477 93.7311 19.2477C93.2203 19.2477 92.8038 19.0865 92.4938 18.7677C92.1856 18.4516 92.0129 18.0183 91.9804 17.4793V17.3164H96.4779C96.4937 17.1843 96.5017 17.054 96.5017 16.928C96.4946 16.3741 96.3669 15.8844 96.1247 15.4732C95.8826 15.0628 95.5462 14.7413 95.1243 14.5177L95.1261 14.5185ZM92.0174 16.5749L92.0279 16.4771C92.0772 16.0377 92.2613 15.6801 92.5757 15.4142C92.8892 15.15 93.2661 15.0152 93.6959 15.0152C94.1574 15.0152 94.5457 15.1456 94.8513 15.4018C95.1578 15.6599 95.3427 16.0209 95.3991 16.4754L95.4114 16.574H92.0165L92.0174 16.5749Z" fill="black"/>
<path d="M100.509 14.1795C99.7196 14.1795 99.1014 14.4542 98.6707 14.995L98.5492 15.1473L98.388 14.2491H97.4572V20.0244H98.5369V17.113C98.5369 16.4903 98.6866 15.9928 98.9807 15.6334C99.2801 15.2689 99.6958 15.0839 100.217 15.0839C100.708 15.0839 101.086 15.2433 101.344 15.5577C101.596 15.8668 101.724 16.3204 101.724 16.9034V20.0235H102.815V16.8338C102.815 15.902 102.599 15.2195 102.173 14.8047C101.747 14.3891 101.187 14.1795 100.509 14.1795Z" fill="black"/>
<path d="M105.594 18.9245C105.484 18.81 105.431 18.6277 105.431 18.3697V15.1781H106.861V14.2499H105.431V12.5873H104.34V14.2499H103.305V15.1781H104.34V18.4982C104.34 19.0222 104.462 19.4115 104.703 19.6572C104.945 19.902 105.34 20.0262 105.879 20.0262H107V19.098H106.135C105.887 19.098 105.705 19.0398 105.595 18.9254L105.594 18.9245Z" fill="black"/>
<path d="M40.4627 23.931H39.302V31.8922H40.4627V23.931Z" fill="black"/>
<path d="M44.6309 26.0464C43.8418 26.0464 43.2236 26.3211 42.7929 26.8618L42.6714 27.0142L42.5103 26.1159H41.5794V31.8913H42.6591V28.9798C42.6591 28.3572 42.8088 27.8596 43.1029 27.5003C43.4024 27.1357 43.818 26.9508 44.3394 26.9508C44.8299 26.9508 45.2086 27.1102 45.4657 27.4246C45.7176 27.7337 45.8462 28.1872 45.8462 28.7702V31.8904H46.9373V28.7007C46.9373 27.7689 46.7216 27.0864 46.2953 26.6716C45.8691 26.2559 45.309 26.0464 44.6309 26.0464Z" fill="black"/>
<path d="M51.7994 28.7447C51.4577 28.6346 51.0297 28.5518 50.5269 28.4981C50.1464 28.4514 49.8664 28.41 49.6929 28.3748C49.5097 28.3369 49.3539 28.2691 49.2314 28.1714C49.0976 28.0648 49.0298 27.9072 49.0298 27.7011C49.0298 27.4299 49.1575 27.2123 49.4085 27.0565C49.6462 26.9085 49.9589 26.8337 50.3384 26.8337C50.718 26.8337 51.0421 26.927 51.2966 27.1119C51.5335 27.2837 51.6779 27.503 51.7272 27.7636H52.7761C52.7206 27.2282 52.4855 26.8196 52.0592 26.5166C51.6075 26.1961 51.0086 26.0331 50.2794 26.0331C49.8365 26.0331 49.4358 26.1089 49.0879 26.2586C48.7436 26.4065 48.4706 26.6179 48.2759 26.8865C48.0831 27.1525 47.9844 27.4616 47.9844 27.805C47.9844 28.1687 48.0804 28.4594 48.2698 28.6707C48.4635 28.8865 48.7242 29.0459 49.0439 29.1454C49.3741 29.2475 49.8012 29.3312 50.3129 29.392C50.6942 29.4387 50.9813 29.4844 51.1654 29.5276C51.3618 29.5734 51.522 29.6526 51.6409 29.7636C51.7677 29.8816 51.832 30.0551 51.832 30.2814C51.832 30.5536 51.6982 30.772 51.4348 30.9322C51.1856 31.0837 50.8589 31.1603 50.4652 31.1603C50.0214 31.1603 49.6542 31.0547 49.3723 30.8468C49.1081 30.6513 48.9532 30.4012 48.91 30.1027H47.8717C47.9069 30.6707 48.1438 31.1084 48.593 31.4377C49.0676 31.7847 49.7008 31.9609 50.4767 31.9609C50.9355 31.9609 51.3556 31.8869 51.7228 31.7407C52.0857 31.5963 52.3745 31.3867 52.5806 31.1181C52.7849 30.8521 52.8879 30.5395 52.8879 30.189C52.8879 29.7944 52.7893 29.4792 52.5956 29.2519C52.3983 29.0212 52.1297 28.8504 51.7986 28.7438L51.7994 28.7447Z" fill="black"/>
<path d="M55.6109 30.7913C55.5008 30.6769 55.4471 30.4946 55.4471 30.2365V27.045H56.8773V26.1168H55.4471V24.4541H54.356V26.1168H53.3212V27.045H54.356V30.3651C54.356 30.8891 54.4784 31.2783 54.7197 31.524C54.961 31.7689 55.3564 31.893 55.8954 31.893H57.0165V30.9648H56.1517C55.9033 30.9648 55.721 30.9067 55.6118 30.7922L55.6109 30.7913Z" fill="black"/>
<path d="M58.7716 26.1159H57.6919V31.8913H58.7716V26.1159Z" fill="black"/>
<path d="M58.2309 23.7329C58.0363 23.7329 57.8769 23.7954 57.7456 23.9231C57.6153 24.0508 57.551 24.2067 57.551 24.4004C57.551 24.5942 57.6144 24.7509 57.7456 24.8777C57.8769 25.0054 58.0354 25.0679 58.2309 25.0679C58.4264 25.0679 58.5849 25.0054 58.7161 24.8777C58.8473 24.75 58.9108 24.5942 58.9108 24.4004C58.9108 24.2067 58.8473 24.0499 58.7161 23.9231C58.5849 23.7954 58.4264 23.7329 58.2309 23.7329Z" fill="black"/>
<path d="M61.8178 30.7913C61.7077 30.6769 61.654 30.4946 61.654 30.2365V27.045H63.0842V26.1168H61.654V24.4541H60.5629V26.1168H59.5281V27.045H60.5629V30.3651C60.5629 30.8891 60.6853 31.2783 60.9266 31.524C61.1679 31.7689 61.5633 31.893 62.1023 31.893H63.2233V30.9648H62.3585C62.1102 30.9648 61.9279 30.9067 61.8187 30.7922L61.8178 30.7913Z" fill="black"/>
<path d="M66.4149 31.045C65.9314 31.045 65.5597 30.8812 65.3105 30.5571C65.0674 30.2409 64.9433 29.7768 64.9433 29.178V26.1159H63.8636V29.3057C63.8636 30.2383 64.0741 30.9208 64.4889 31.3356C64.9036 31.7504 65.4541 31.9609 66.1234 31.9609C66.8666 31.9609 67.462 31.694 67.8917 31.1683L68.0124 31.0212L68.1726 31.8913H69.1158V26.1159H68.0361V28.9807C68.0361 29.6095 67.8935 30.115 67.6108 30.4813C67.3228 30.8547 66.9203 31.045 66.4131 31.045H66.4149Z" fill="black"/>
<path d="M72.14 30.7913C72.0299 30.6769 71.9762 30.4946 71.9762 30.2365V27.045H73.4064V26.1168H71.9762V24.4541H70.8851V26.1168H69.8503V27.045H70.8851V30.3651C70.8851 30.8891 71.0075 31.2783 71.2488 31.524C71.4901 31.7689 71.8855 31.893 72.4245 31.893H73.5455V30.9648H72.6807C72.4324 30.9648 72.2501 30.9067 72.1409 30.7922L72.14 30.7913Z" fill="black"/>
<path d="M78.1549 26.3845C77.7322 26.16 77.2355 26.0464 76.6789 26.0464C76.1223 26.0464 75.6397 26.1696 75.217 26.4127C74.7961 26.6549 74.4632 27.0027 74.2281 27.4466C73.992 27.8931 73.8723 28.4206 73.8723 29.0151C73.8723 29.6095 73.9956 30.1229 74.2395 30.565C74.4817 31.0053 74.8304 31.3514 75.2743 31.5936C75.7199 31.8376 76.2518 31.9609 76.8533 31.9609C77.542 31.9609 78.1241 31.7715 78.582 31.399C79.0118 31.0494 79.2892 30.602 79.4081 30.0674H78.3266C78.2306 30.3889 78.0492 30.6434 77.7868 30.8248C77.5094 31.0168 77.1642 31.1137 76.7599 31.1137C76.2492 31.1137 75.8326 30.9525 75.5226 30.6337C75.2144 30.3175 75.0418 29.8843 75.0092 29.3453V29.1824H79.5067C79.5226 29.0503 79.5305 28.9199 79.5305 28.794C79.5234 28.2401 79.3958 27.7504 79.1536 27.3392C78.9114 26.9288 78.575 26.6073 78.1531 26.3836L78.1549 26.3845ZM75.0462 28.4409L75.0568 28.3431C75.1061 27.9037 75.2901 27.5461 75.6045 27.2802C75.918 27.016 76.295 26.8812 76.7247 26.8812C77.1862 26.8812 77.5746 27.0116 77.8801 27.2678C78.1866 27.5259 78.3715 27.8869 78.4279 28.3414L78.4402 28.44H75.0453L75.0462 28.4409Z" fill="black"/>
</g>
<defs>
<clipPath id="clip0_84_17">
<rect width="107" height="32" fill="white"/>
</clipPath>
</defs>
</svg>
